<svg width="53" height="53" viewBox="0 0 53 53" fill="none" xmlns="http://www.w3.org/2000/svg">
<circle cx="26.1795" cy="26.4322" r="26.1795" fill="#06FFC0"/>
<mask id="path-2-outside-1_7_47" maskUnits="userSpaceOnUse" x="10.9397" y="14.9323" width="31" height="22" fill="black">
<rect fill="white" x="10.9397" y="14.9323" width="31" height="22"/>
<path d="M17.5317 25.6923H25.5957V28.8123H17.5317V25.6923ZM17.8197 34.9323H13.9317V18.1322H26.6277V21.2522H17.8197V34.9323ZM35.7927 34.9323V17.1242H39.5367V34.9323H35.7927Z"/>
</mask>
<path d="M17.5317 25.6923V23.6923H15.5317V25.6923H17.5317ZM25.5957 25.6923H27.5957V23.6923H25.5957V25.6923ZM25.5957 28.8123V30.8123H27.5957V28.8123H25.5957ZM17.5317 28.8123H15.5317V30.8123H17.5317V28.8123ZM17.8197 34.9323V36.9323H19.8197V34.9323H17.8197ZM13.9317 34.9323H11.9317V36.9323H13.9317V34.9323ZM13.9317 18.1322V16.1322H11.9317V18.1322H13.9317ZM26.6277 18.1322H28.6277V16.1322H26.6277V18.1322ZM26.6277 21.2522V23.2522H28.6277V21.2522H26.6277ZM17.8197 21.2522V19.2522H15.8197V21.2522H17.8197ZM17.5317 27.6923H25.5957V23.6923H17.5317V27.6923ZM23.5957 25.6923V28.8123H27.5957V25.6923H23.5957ZM25.5957 26.8123H17.5317V30.8123H25.5957V26.8123ZM19.5317 28.8123V25.6923H15.5317V28.8123H19.5317ZM17.8197 32.9323H13.9317V36.9323H17.8197V32.9323ZM15.9317 34.9323V18.1322H11.9317V34.9323H15.9317ZM13.9317 20.1322H26.6277V16.1322H13.9317V20.1322ZM24.6277 18.1322V21.2522H28.6277V18.1322H24.6277ZM26.6277 19.2522H17.8197V23.2522H26.6277V19.2522ZM15.8197 21.2522V34.9323H19.8197V21.2522H15.8197ZM35.7927 34.9323H33.7927V36.9323H35.7927V34.9323ZM35.7927 17.1242V15.1242H33.7927V17.1242H35.7927ZM39.5367 17.1242H41.5367V15.1242H39.5367V17.1242ZM39.5367 34.9323V36.9323H41.5367V34.9323H39.5367ZM37.7927 34.9323V17.1242H33.7927V34.9323H37.7927ZM35.7927 19.1242H39.5367V15.1242H35.7927V19.1242ZM37.5367 17.1242V34.9323H41.5367V17.1242H37.5367ZM39.5367 32.9323H35.7927V36.9323H39.5367V32.9323Z" fill="black" mask="url(#path-2-outside-1_7_47)"/>
</svg>
