<svg width="53" height="58" viewBox="0 0 53 58" fill="none" xmlns="http://www.w3.org/2000/svg">
<path d="M2.73639 5.37374C0.0421867 2.97238 3.10277 -1.26688 6.23001 0.534679L25.4686 11.6178C26.4136 12.1622 27.5797 12.1509 28.5139 11.5882L46.3821 0.826668C49.4696 -1.03282 52.6119 3.13434 49.9751 5.59139L27 27L51.6752 51.6752C54.2102 54.2102 50.9678 58.2522 47.9433 56.3276L28.5754 44.0025C27.6109 43.3888 26.3815 43.3765 25.4049 43.9709L4.59239 56.6394C1.52663 58.5055 -1.63471 54.3897 0.958885 51.9089L27 27L2.73639 5.37374Z" fill="url(#paint0_linear_10_30)"/>
<defs>
<linearGradient id="paint0_linear_10_30" x1="1.5" y1="8.5" x2="46.5" y2="56.5" gradientUnits="userSpaceOnUse">
<stop stop-color="#325598"/>
<stop offset="1" stop-color="#323698" stop-opacity="0.76"/>
</linearGradient>
</defs>
</svg>
