<svg width="46" height="50" viewBox="0 0 46 50" fill="none" xmlns="http://www.w3.org/2000/svg">
<rect width="46" height="50" rx="10" fill="#F8DAD1"/>
<path d="M10.5 35C10.5 39.4183 14.0817 43 18.5 43C22.9183 43 26.5 39.4183 26.5 35C26.5 30.5817 22.9183 27 18.5 27C14.0817 27 10.5 30.5817 10.5 35ZM26.9 10.2C27.5627 9.70294 27.6971 8.76274 27.2 8.1C26.7029 7.43726 25.7627 7.30294 25.1 7.8L26.9 10.2ZM31.5958 32.0315C31.8038 31.2297 31.3224 30.411 30.5205 30.2029C29.7186 29.9949 28.8999 30.4763 28.6919 31.2782L31.5958 32.0315ZM19.6277 35.7339L20.4459 34.4767L19.6277 35.7339ZM30.1439 31.6549L28.6919 31.2782L30.1439 31.6549ZM17.6818 36.2572L18.8095 36.9911L20.4459 34.4767L19.3182 33.7428L17.6818 36.2572ZM15.8061 18.5204L26.9 10.2L25.1 7.8L14.0061 16.1204L15.8061 18.5204ZM25.0305 21.6167L16.1193 19.884L15.5467 22.8288L24.4579 24.5616L25.0305 21.6167ZM16.1193 19.884C15.7596 19.8141 15.5 19.4991 15.5 19.1327H12.5C12.5 20.9351 13.7774 22.4848 15.5467 22.8288L16.1193 19.884ZM14.0061 16.1204C13.058 16.8315 12.5 17.9475 12.5 19.1327H15.5C15.5 18.8918 15.6134 18.6649 15.8061 18.5204L14.0061 16.1204ZM31.5958 32.0315C32.819 27.3164 29.8121 22.5465 25.0305 21.6167L24.4579 24.5616C27.5416 25.1612 29.4808 28.2374 28.6919 31.2782L31.5958 32.0315ZM18.8095 36.9911C23.6468 40.1392 30.1465 37.6181 31.5958 32.0315L28.6919 31.2782C27.7573 34.8811 23.5655 36.5069 20.4459 34.4767L18.8095 36.9911Z" fill="#634848"/>
<path d="M24 35.5C24 38.5376 21.5376 41 18.5 41C15.4624 41 13 38.5376 13 35.5C13 32.4624 15.4624 30 18.5 30C21.5376 30 24 32.4624 24 35.5Z" fill="#FCB980"/>
<path d="M21 35.5C21 36.8807 19.8807 38 18.5 38C17.1193 38 16 36.8807 16 35.5C16 34.1193 17.1193 33 18.5 33C19.8807 33 21 34.1193 21 35.5Z" fill="#F930A9"/>
</svg>
