<svg width="146" height="72" viewBox="0 0 146 72" fill="none" xmlns="http://www.w3.org/2000/svg">
<g filter="url(#filter0_b_198_605)">
<path d="M145.525 8.04098L145.525 68.6963C145.525 70.3531 144.182 71.6963 142.525 71.6963L81.8698 71.6963C79.1971 71.6963 77.8586 68.4649 79.7485 66.575L140.404 5.91966C142.294 4.02976 145.525 5.36826 145.525 8.04098Z" fill="#D7F1F1" fill-opacity="0.05"/>
</g>
<g filter="url(#filter1_b_198_605)">
<path d="M70.8979 8.04098L70.8979 68.6963C70.8979 70.3531 69.5548 71.6963 67.8979 71.6963L7.24264 71.6963C4.56992 71.6963 3.23142 68.4649 5.12131 66.575L65.7766 5.91966C67.6665 4.02976 70.8979 5.36826 70.8979 8.04098Z" fill="#D7F1F1" fill-opacity="0.05"/>
</g>
<defs>
<filter id="filter0_b_198_605" x="58.8638" y="-14.9651" width="106.661" height="106.661" filterUnits="userSpaceOnUse" color-interpolation-filters="sRGB">
<feFlood flood-opacity="0" result="BackgroundImageFix"/>
<feGaussianBlur in="BackgroundImageFix" stdDeviation="10"/>
<feComposite in2="SourceAlpha" operator="in" result="effect1_backgroundBlur_198_605"/>
<feBlend mode="normal" in="SourceGraphic" in2="effect1_backgroundBlur_198_605" result="shape"/>
</filter>
<filter id="filter1_b_198_605" x="-15.7634" y="-14.9651" width="106.661" height="106.661" filterUnits="userSpaceOnUse" color-interpolation-filters="sRGB">
<feFlood flood-opacity="0" result="BackgroundImageFix"/>
<feGaussianBlur in="BackgroundImageFix" stdDeviation="10"/>
<feComposite in2="SourceAlpha" operator="in" result="effect1_backgroundBlur_198_605"/>
<feBlend mode="normal" in="SourceGraphic" in2="effect1_backgroundBlur_198_605" result="shape"/>
</filter>
</defs>
</svg>
